<svg xmlns="http://www.w3.org/2000/svg" viewBox="0 0 184.23 64.36"><defs><style>.cls-1{fill:#9f3130;}.cls-2{fill:#3390cd;}.cls-3,.cls-4{fill:#231f20;}.cls-4{font-size:11.09px;font-family:Baskerville;}.cls-5{fill:#a13130;}.cls-6{font-size:7.59px;fill:#fcfbff;font-family:Rubik-Bold, Rubik;font-weight:700;}.cls-7{letter-spacing:-0.01em;}.cls-8{letter-spacing:0em;}.cls-14,.cls-9{fill:#6c0c0e;}.cls-9{letter-spacing:0em;}.cls-10,.cls-11,.cls-12,.cls-13{fill:#f4da00;}.cls-10{letter-spacing:0em;}.cls-11{letter-spacing:-0.01em;}.cls-12{letter-spacing:-0.07em;}</style></defs><g id="Layer_2" data-name="Layer 2"><g id="Layer_1-2" data-name="Layer 1"><path class="cls-1" d="M4.91,45.87,8.23,35.74l7.44,10.31,8.9-.22L8.2,24.15.26,45.87Z"/><path class="cls-2" d="M14.24,24.15l16,21.9,14.62-.29L36,34.43S48.68,30.25,47,18,29.37,4.86,29.37,4.86H0l7.79,11h23.8c.16,0,3.34,1.17,3.79,3.9A3.7,3.7,0,0,1,35,22.18a4.25,4.25,0,0,1-3.92,2Z"/><rect class="cls-2" x="51.86" y="7.43" width="4.49" height="11.51"/><polygon class="cls-2" points="101.02 7.43 101.02 18.94 96.53 18.94 96.53 14.35 91.88 14.35 91.88 18.94 87.4 18.94 87.4 7.43 91.88 7.43 91.88 11.75 96.53 11.75 96.53 7.43 101.02 7.43"/><polygon class="cls-2" points="63.23 9.88 63.23 11.96 68.25 11.96 68.25 14.41 63.23 14.41 63.23 18.94 58.75 18.94 58.75 7.43 69.13 7.43 69.13 9.88 63.23 9.88"/><path class="cls-1" d="M80.81,7.43H75.35L69.44,18.94h4.33l1.94-3.19h4.42l1.17,3.19h4.62Zm-4,6.05L78,10l1.43,3.46Z"/><path class="cls-3" d="M106.31,9.4A4.7,4.7,0,1,1,111,4.7,4.7,4.7,0,0,1,106.31,9.4Zm0-8.4A3.7,3.7,0,1,0,110,4.7,3.71,3.71,0,0,0,106.31,1Z"/><path class="cls-3" d="M104.51,7.21v-5h1.7a1.94,1.94,0,0,1,1,.2,1.27,1.27,0,0,1,.56.54,1.67,1.67,0,0,1,.18.79,1.66,1.66,0,0,1-.18.78,1.25,1.25,0,0,1-.56.53,2,2,0,0,1-1,.19h-1.35V4.72h1.32a1.58,1.58,0,0,0,.63-.11.75.75,0,0,0,.35-.33,1.12,1.12,0,0,0,.11-.5,1.21,1.21,0,0,0-.11-.52.82.82,0,0,0-.35-.34,1.43,1.43,0,0,0-.64-.12h-1V7.21Zm2.85,0L106.16,5h.71l1.22,2.24Z"/><text class="cls-4" transform="translate(50.08 32.84)">Chamber Of Commerce<tspan x="0" y="13.23">And Industry</tspan></text><polygon class="cls-5" points="173.8 64.36 0 64.36 0 53.07 184.23 53.07 173.8 64.36"/><text class="cls-6" transform="translate(5.79 61.52)"><tspan class="cls-7">T</tspan><tspan x="4.7" y="0">OGETHER </tspan><tspan class="cls-8" x="42.54" y="0">F</tspan><tspan x="47.19" y="0">OR</tspan><tspan class="cls-9" x="57.83" y="0"> </tspan><tspan class="cls-10" x="59.45" y="0">SU</tspan><tspan class="cls-11" x="69.97" y="0">S</tspan><tspan class="cls-12" x="74.95" y="0">T</tspan><tspan class="cls-13" x="79.19" y="0">AINABLE</tspan><tspan class="cls-14" x="112.68" y="0"> </tspan><tspan x="114.29" y="0">FUTURE</tspan></text></g></g></svg>